<svg width="384" height="83" viewBox="0 0 384 83" fill="none" xmlns="http://www.w3.org/2000/svg">
<path d="M49.686 36.312C45.846 36.312 42.614 35.448 39.99 33.72C37.366 31.928 36.054 29.688 36.054 27C36.054 23.608 38.262 20.216 42.678 16.824C43.446 16.248 44.022 15.96 44.406 15.96C44.79 15.96 44.982 16.088 44.982 16.344C44.982 16.984 44.47 17.496 43.446 17.88C39.862 20.76 38.07 23.672 38.07 26.616C38.07 28.728 39.03 30.52 40.95 31.992C42.87 33.4 45.27 34.104 48.15 34.104C54.422 34.104 60.342 31.096 65.91 25.08C68.79 21.944 70.23 18.328 70.23 14.232C70.23 10.136 68.694 7.096 65.622 5.112C63.062 3.32 59.606 2.424 55.254 2.424C48.982 2.424 42.678 3.992 36.342 7.128C28.534 10.904 21.462 16.792 15.126 24.792C8.854 32.728 5.718 40.376 5.718 47.736C5.718 53.56 7.702 58.072 11.67 61.272C15.638 64.408 20.566 65.976 26.454 65.976C33.174 65.976 39.766 64.344 46.23 61.08C51.158 58.52 55.414 55.256 58.998 51.288C60.022 50.136 60.822 49.56 61.398 49.56C61.782 49.56 61.974 49.912 61.974 50.616C61.974 51.256 61.622 51.928 60.918 52.632C57.526 56.216 52.63 59.672 46.23 63C38.358 67.16 30.422 69.24 22.422 69.24C14.486 69.24 8.566 66.616 4.662 61.368C2.038 57.912 0.726 53.784 0.726 48.984C0.726 46.872 0.982 44.6 1.494 42.168C3.222 33.976 7.766 26.008 15.126 18.264C20.438 12.696 26.742 8.376 34.038 5.304C41.334 2.168 48.246 0.599997 54.774 0.599997C58.23 0.599997 61.238 1.016 63.798 1.848C70.774 4.024 74.262 8.408 74.262 15C74.262 19.032 73.078 22.52 70.71 25.464C64.822 32.696 57.814 36.312 49.686 36.312ZM94.8623 42.648C94.8623 44.888 92.7183 48.632 88.4303 53.88C83.3743 60.088 79.0543 63.192 75.4703 63.192H73.9343C72.2703 63.192 70.9583 62.328 69.9983 60.6C69.2303 59.384 68.8463 58.04 68.8463 56.568C68.8463 52.728 71.6303 47.352 77.1983 40.44C82.8303 33.464 87.3743 29.976 90.8303 29.976C94.0943 29.976 95.7263 31.704 95.7263 35.16C95.7263 36.056 95.5663 37.208 95.2463 38.616C95.3103 38.808 95.9183 38.904 97.0703 38.904C98.2223 38.904 99.9823 38.296 102.35 37.08C102.286 38.168 99.7583 39.736 94.7663 41.784C94.8303 42.04 94.8623 42.328 94.8623 42.648ZM88.6223 37.656C86.4463 37.656 83.3423 40.216 79.3103 45.336C75.3423 50.456 73.3583 54.232 73.3583 56.664C73.3583 59.096 74.1263 60.312 75.6623 60.312C78.4143 60.312 81.9023 57.816 86.1263 52.824C90.3503 47.832 92.4623 44.248 92.4623 42.072C91.4383 41.496 90.1583 40.024 88.6223 37.656ZM138.374 16.056C138.374 18.04 137.798 19.032 136.646 19.032C136.326 19.032 136.006 18.776 135.686 18.264C135.11 17.24 134.15 16.728 132.806 16.728C129.862 16.728 127.11 18.84 124.55 23.064C124.038 23.896 122.438 26.904 119.75 32.088H120.902C127.878 32.088 132.518 31.992 134.822 31.8C135.078 31.864 135.206 31.992 135.206 32.184C135.206 32.696 132.934 33.4 128.39 34.296C124.102 35 120.582 35.608 117.83 36.12C115.846 40.216 113.446 45.08 110.63 50.712C104.87 61.464 101.062 68.152 99.2063 70.776C93.6383 78.712 88.1983 82.68 82.8863 82.68C81.0303 82.68 79.4303 81.88 78.0863 80.28C76.6783 78.744 75.9423 77.016 75.8783 75.096C76.0703 74.328 76.3583 73.944 76.7423 73.944C76.9343 73.944 77.0623 74.168 77.1263 74.616C77.5103 76.28 78.1503 77.56 79.0463 78.456C79.9423 79.352 80.8703 79.8 81.8303 79.8C87.2703 79.8 92.2303 76.44 96.7103 69.72C99.2703 65.88 102.758 58.968 107.174 48.984L112.358 36.504C105.958 36.44 102.758 35.672 102.758 34.2C102.758 33.56 103.046 33.016 103.622 32.568C104.262 32.12 104.806 31.896 105.254 31.896L114.278 32.088C120.55 18.136 126.31 11.16 131.558 11.16C133.542 11.16 135.558 12.12 137.606 14.04C138.118 14.552 138.374 15.224 138.374 16.056ZM164.024 16.056C164.024 18.04 163.448 19.032 162.296 19.032C161.976 19.032 161.656 18.776 161.336 18.264C160.76 17.24 159.8 16.728 158.456 16.728C155.512 16.728 152.76 18.84 150.2 23.064C149.688 23.896 148.088 26.904 145.4 32.088H146.552C153.528 32.088 158.168 31.992 160.472 31.8C160.728 31.864 160.856 31.992 160.856 32.184C160.856 32.696 158.584 33.4 154.04 34.296C149.752 35 146.232 35.608 143.48 36.12C141.496 40.216 139.096 45.08 136.28 50.712C130.52 61.464 126.712 68.152 124.856 70.776C119.288 78.712 113.848 82.68 108.536 82.68C106.68 82.68 105.08 81.88 103.736 80.28C102.328 78.744 101.592 77.016 101.528 75.096C101.72 74.328 102.008 73.944 102.392 73.944C102.584 73.944 102.712 74.168 102.776 74.616C103.16 76.28 103.8 77.56 104.696 78.456C105.592 79.352 106.52 79.8 107.48 79.8C112.92 79.8 117.88 76.44 122.36 69.72C124.92 65.88 128.408 58.968 132.824 48.984L138.008 36.504C131.608 36.44 128.408 35.672 128.408 34.2C128.408 33.56 128.696 33.016 129.272 32.568C129.912 32.12 130.456 31.896 130.904 31.896L139.928 32.088C146.2 18.136 151.96 11.16 157.208 11.16C159.192 11.16 161.208 12.12 163.256 14.04C163.768 14.552 164.024 15.224 164.024 16.056ZM155.402 64.248C154.698 64.248 154.058 64.152 153.482 63.96C149.386 62.808 147.338 60.504 147.338 57.048C147.338 52.568 150.154 47.384 155.786 41.496C161.418 35.608 166.474 32.664 170.954 32.664C172.426 32.664 173.61 33.08 174.506 33.912C175.466 34.68 175.946 35.64 175.946 36.792C175.946 40.376 173.226 43.8 167.786 47.064C162.41 50.328 158.026 51.96 154.634 51.96C154.122 51.96 153.674 51.896 153.29 51.768C152.33 53.496 151.85 55.32 151.85 57.24C151.85 60.568 153.418 62.232 156.554 62.232C159.754 62.232 163.882 60.088 168.938 55.8C172.842 52.664 176.17 49.336 178.922 45.816C179.498 45.048 179.978 44.664 180.362 44.664C180.81 44.664 181.034 44.856 181.034 45.24C181.034 45.624 180.778 46.168 180.266 46.872C176.81 51.416 172.65 55.448 167.786 58.968C162.922 62.488 158.794 64.248 155.402 64.248ZM173.546 36.6C173.546 35.832 172.714 35.448 171.05 35.448C169.45 35.448 167.146 36.696 164.138 39.192C160.106 42.52 156.97 46.008 154.73 49.656C155.114 49.784 155.53 49.848 155.978 49.848C158.41 49.848 161.642 48.568 165.674 46.008C169.77 43.384 172.33 40.536 173.354 37.464C173.482 37.144 173.546 36.856 173.546 36.6ZM182.459 64.248C181.755 64.248 181.115 64.152 180.539 63.96C176.443 62.808 174.395 60.504 174.395 57.048C174.395 52.568 177.211 47.384 182.843 41.496C188.475 35.608 193.531 32.664 198.011 32.664C199.483 32.664 200.667 33.08 201.562 33.912C202.523 34.68 203.003 35.64 203.003 36.792C203.003 40.376 200.283 43.8 194.843 47.064C189.467 50.328 185.083 51.96 181.691 51.96C181.179 51.96 180.731 51.896 180.347 51.768C179.387 53.496 178.907 55.32 178.907 57.24C178.907 60.568 180.475 62.232 183.611 62.232C186.811 62.232 190.939 60.088 195.995 55.8C199.899 52.664 203.227 49.336 205.979 45.816C206.555 45.048 207.035 44.664 207.419 44.664C207.867 44.664 208.091 44.856 208.091 45.24C208.091 45.624 207.835 46.168 207.323 46.872C203.867 51.416 199.707 55.448 194.843 58.968C189.979 62.488 185.851 64.248 182.459 64.248ZM200.603 36.6C200.603 35.832 199.771 35.448 198.107 35.448C196.507 35.448 194.203 36.696 191.195 39.192C187.163 42.52 184.027 46.008 181.787 49.656C182.171 49.784 182.587 49.848 183.035 49.848C185.467 49.848 188.699 48.568 192.731 46.008C196.827 43.384 199.387 40.536 200.411 37.464C200.539 37.144 200.603 36.856 200.603 36.6ZM227.371 62.616C223.595 62.616 221.707 60.408 221.707 55.992C221.707 53.496 222.571 50.744 224.299 47.736C226.091 44.664 228.267 41.08 230.827 36.984C222.635 41.08 215.211 47.128 208.555 55.128C204.843 60.696 202.667 63.48 202.027 63.48C200.171 63.48 199.243 62.936 199.243 61.848C199.243 61.272 199.627 60.248 200.395 58.776C206.603 47.704 211.307 39.608 214.507 34.488C222.123 22.264 227.499 15.64 230.635 14.616C230.763 14.552 230.891 14.52 231.019 14.52C231.851 14.52 232.427 15.192 232.747 16.536C232.555 17.88 229.227 22.744 222.763 31.128C216.043 39.64 212.235 45.208 211.339 47.832C213.707 46.104 217.835 43.192 223.723 39.096C230.059 34.68 234.251 32.472 236.299 32.472C238.347 32.472 239.371 33.272 239.371 34.872C239.371 35.128 239.339 35.32 239.275 35.448C239.275 35.512 237.067 38.52 232.651 44.472C228.235 50.424 226.027 54.808 226.027 57.624C226.027 59.096 226.571 59.832 227.659 59.832C231.115 59.704 236.299 55.544 243.211 47.352C243.787 46.776 244.203 46.488 244.459 46.488C244.779 46.488 244.939 46.68 244.939 47.064C244.939 48.344 241.771 51.8 235.435 57.432C231.467 60.888 228.779 62.616 227.371 62.616ZM268.168 42.648C268.168 44.888 266.024 48.632 261.736 53.88C256.68 60.088 252.36 63.192 248.776 63.192H247.24C245.576 63.192 244.264 62.328 243.304 60.6C242.536 59.384 242.152 58.04 242.152 56.568C242.152 52.728 244.936 47.352 250.504 40.44C256.136 33.464 260.68 29.976 264.136 29.976C267.4 29.976 269.032 31.704 269.032 35.16C269.032 36.056 268.872 37.208 268.552 38.616C268.616 38.808 269.224 38.904 270.376 38.904C271.528 38.904 273.288 38.296 275.656 37.08C275.592 38.168 273.064 39.736 268.072 41.784C268.136 42.04 268.168 42.328 268.168 42.648ZM261.928 37.656C259.752 37.656 256.648 40.216 252.616 45.336C248.648 50.456 246.664 54.232 246.664 56.664C246.664 59.096 247.432 60.312 248.968 60.312C251.72 60.312 255.208 57.816 259.432 52.824C263.656 47.832 265.768 44.248 265.768 42.072C264.744 41.496 263.464 40.024 261.928 37.656ZM299.393 63.576C299.073 63.64 298.369 63.672 297.281 63.672C296.257 63.672 295.201 63.256 294.113 62.424C293.089 61.592 292.577 60.536 292.577 59.256C292.577 57.912 292.801 56.44 293.249 54.84C293.761 53.24 294.113 52.024 294.305 51.192C286.945 59.768 281.185 64.056 277.025 64.056C274.401 64.056 272.961 62.424 272.705 59.16C272.705 58.904 272.705 58.68 272.705 58.488C272.705 55.736 274.369 52.024 277.697 47.352C275.841 49.016 273.953 50.936 272.033 53.112C271.777 53.368 271.457 53.496 271.073 53.496C270.817 53.496 270.689 53.336 270.689 53.016C270.689 52.696 270.977 52.152 271.553 51.384L284.801 35.832C286.465 33.912 288.161 32.952 289.889 32.952C291.617 32.952 292.481 33.528 292.481 34.68C292.481 35.128 292.289 35.544 291.905 35.928C289.345 38.296 286.113 42.232 282.209 47.736C278.369 53.24 276.449 57.304 276.449 59.928C276.449 61.08 276.833 61.656 277.601 61.656C280.289 61.656 284.193 59 289.313 53.688C291.105 51.896 294.433 47.96 299.297 41.88C304.161 35.736 307.361 32.664 308.897 32.664C311.201 32.664 312.353 33.56 312.353 35.352C312.353 35.992 311.009 37.848 308.321 40.92C304.673 45.336 301.889 48.952 299.969 51.768C298.049 54.52 297.089 56.76 297.089 58.488C297.089 60.216 297.569 61.08 298.529 61.08C298.977 61.08 299.489 60.952 300.065 60.696C304.481 58.776 309.761 54.296 315.905 47.256C316.289 46.808 316.673 46.584 317.057 46.584C317.441 46.584 317.633 46.808 317.633 47.256C317.633 47.64 317.409 48.088 316.961 48.6C314.209 51.8 310.977 55.032 307.265 58.296C303.553 61.496 300.929 63.256 299.393 63.576ZM333.358 61.56C331.502 62.648 329.198 63.192 326.446 63.192C323.758 63.192 321.678 62.296 320.206 60.504C318.798 58.712 317.582 55.864 316.558 51.96C315.406 53.112 314.606 53.688 314.158 53.688C313.838 53.688 313.678 53.464 313.678 53.016C313.678 52.568 313.838 52.184 314.158 51.864C316.27 49.24 319.854 45.464 324.91 40.536L337.006 29.208C340.462 25.944 342.51 24.312 343.15 24.312C345.198 24.312 346.222 25.08 346.222 26.616C346.222 27.384 345.902 28.152 345.262 28.92C344.686 29.624 344.238 30.2 343.918 30.648C343.662 31.032 343.374 31.416 343.054 31.8C341.902 33.784 340.718 37.88 339.502 44.088C338.35 50.296 337.454 54.616 336.814 57.048C342.126 56.984 347.598 53.528 353.23 46.68C353.87 46.04 354.35 45.72 354.67 45.72C354.99 45.72 355.15 45.944 355.15 46.392C355.15 46.776 354.862 47.32 354.286 48.024C350.574 52.376 347.118 55.416 343.918 57.144C341.998 58.104 339.502 58.904 336.43 59.544L333.358 61.56ZM320.398 50.904C320.398 53.08 321.102 54.872 322.51 56.28C323.982 57.624 325.614 58.296 327.406 58.296C329.198 58.296 330.574 57.944 331.534 57.24C332.814 56.536 334.062 53.592 335.278 48.408C336.558 43.224 337.326 38.648 337.582 34.68L337.966 31.416C334.446 34.04 330.67 37.432 326.638 41.592C322.67 45.752 320.622 48.504 320.494 49.848C320.43 50.232 320.398 50.584 320.398 50.904ZM357.49 64.248C356.786 64.248 356.146 64.152 355.57 63.96C351.474 62.808 349.426 60.504 349.426 57.048C349.426 52.568 352.242 47.384 357.874 41.496C363.506 35.608 368.562 32.664 373.042 32.664C374.514 32.664 375.698 33.08 376.594 33.912C377.554 34.68 378.034 35.64 378.034 36.792C378.034 40.376 375.314 43.8 369.874 47.064C364.498 50.328 360.114 51.96 356.722 51.96C356.21 51.96 355.762 51.896 355.378 51.768C354.418 53.496 353.938 55.32 353.938 57.24C353.938 60.568 355.506 62.232 358.642 62.232C361.842 62.232 365.97 60.088 371.026 55.8C374.93 52.664 378.258 49.336 381.01 45.816C381.586 45.048 382.066 44.664 382.45 44.664C382.898 44.664 383.122 44.856 383.122 45.24C383.122 45.624 382.866 46.168 382.354 46.872C378.898 51.416 374.738 55.448 369.874 58.968C365.01 62.488 360.882 64.248 357.49 64.248ZM375.634 36.6C375.634 35.832 374.802 35.448 373.138 35.448C371.538 35.448 369.234 36.696 366.226 39.192C362.194 42.52 359.058 46.008 356.818 49.656C357.202 49.784 357.618 49.848 358.066 49.848C360.498 49.848 363.73 48.568 367.762 46.008C371.858 43.384 374.418 40.536 375.442 37.464C375.57 37.144 375.634 36.856 375.634 36.6Z" fill="white"/>
</svg>
