<svg width="87" height="87" viewBox="0 0 87 87" fill="none" xmlns="http://www.w3.org/2000/svg">
<path d="M86.288 18.1416L79.2292 15.251L79.2366 3.23874C79.2366 2.77659 78.8619 2.40208 78.4004 2.40208H66.1867C65.7247 2.40208 65.35 2.77659 65.35 3.23874V9.63335L47.2901 1.09587C47.2812 1.09151 47.2723 1.0878 47.2633 1.08344L47.2084 1.05968C47.199 1.05532 47.1896 1.05161 47.1807 1.04769C46.0153 0.570503 44.7769 0.328094 43.4999 0.328094C42.2235 0.328094 40.9849 0.570285 39.8195 1.04769C39.8121 1.05074 39.8047 1.05358 39.7973 1.05706L0.689731 18.0387C0.270748 18.2205 0 18.6336 0 19.0899V31.2302C0 31.6001 0.178318 31.9471 0.479367 32.1625C0.779544 32.3774 1.16626 32.4346 1.51614 32.3149L43.5001 14.1918L85.4839 32.316C85.6046 32.3572 85.7295 32.3772 85.8538 32.3772C86.0899 32.3772 86.3238 32.3044 86.5206 32.1632C86.8217 31.9482 87 31.6007 87 31.2312V19.2024C87 18.7367 86.719 18.3173 86.288 18.1416Z" fill="white"/>
<path d="M78.6257 75.8786H75.5535V33.3798L43.5002 19.4371L11.4472 33.3798V75.8786H8.37476C5.0157 75.8786 2.29297 78.2953 2.29297 81.2753C2.29297 84.2557 5.0157 86.6719 8.37476 86.6719H59.4859C59.4434 86.482 59.4048 86.2913 59.3597 86.1014C58.8914 84.1301 58.3076 82.1821 57.6421 80.2559C57.5475 79.9819 57.4548 79.7404 57.362 79.4655C57.324 79.353 57.1677 79.3824 57.0646 79.379C56.9216 79.3739 56.7773 79.367 56.6339 79.3606C56.0488 79.3338 55.4635 79.2972 54.8806 79.2508C53.7695 79.1636 52.6636 79.0404 51.5651 78.8782C49.5692 78.5833 47.597 78.1612 45.6765 77.5945C42.4506 76.6425 39.3795 75.2772 36.6254 73.5049C34.44 72.0973 32.4591 70.4393 30.752 68.5831C28.1123 65.7125 26.1329 62.3783 24.8845 58.8457C23.5913 55.1841 23.078 51.3058 23.4023 47.4791C23.4839 46.5173 23.6186 45.5601 23.8067 44.6108C23.8909 44.182 23.9687 43.7706 24.2745 43.4164C24.5444 43.1038 24.9311 42.8773 25.3614 42.7803C25.8537 42.6695 26.4037 42.7271 26.9057 42.736C27.4851 42.7463 28.065 42.765 28.6442 42.7918C29.7797 42.8463 30.9131 42.9327 32.0412 43.0554C36.2929 43.5164 40.4878 44.4852 44.3916 46.0622C48.0323 47.5328 51.4088 49.5348 54.2493 52.0409C57.0104 54.4767 59.2313 57.3706 60.8054 60.5293C61.6174 62.1575 62.2588 63.8515 62.7379 65.5802C62.9864 66.474 63.1907 67.376 63.354 68.2851C63.4381 68.7492 63.5107 69.2137 63.5724 69.6796C63.6256 70.0711 63.5273 70.4718 63.2947 70.8086C62.7754 71.5584 61.074 71.9445 60.4767 71.1301C59.8946 70.3359 59.3067 69.5438 58.6943 68.767C56.439 65.9067 53.9765 63.1546 51.2111 60.6677C50.4677 59.9998 49.7119 59.3295 48.8803 58.7468C48.1084 58.2064 47.282 57.7279 46.4335 57.2856C45.7861 56.9479 45.1247 56.6261 44.4496 56.3297C44.1182 56.1845 44.009 56.3301 44.287 56.5405C45.2075 57.2374 46.1028 57.9537 46.9578 58.7191C50.4801 61.8754 53.2694 65.6055 55.5871 69.5267C57.229 72.3062 58.6813 75.1649 59.9925 78.0788C60.6232 79.4792 61.2856 80.8659 61.8683 82.2833C62.463 83.7275 63.0039 85.19 63.4673 86.6721H78.6246C81.9837 86.6721 84.7064 84.2559 84.7064 81.2755C84.7075 78.2953 81.9847 75.8786 78.6257 75.8786Z" fill="white"/>
</svg>
