<svg width="327" height="189" viewBox="0 0 327 189" fill="none" xmlns="http://www.w3.org/2000/svg">
<path d="M95.9003 182.688H16.6559C13.0353 182.688 9.56098 181.279 6.988 178.767L0.579952 172.511C-0.65364 171.307 0.211177 169.233 1.94704 169.233H110.609C112.345 169.233 113.21 171.307 111.976 172.511L105.568 178.767C102.995 181.279 99.5209 182.688 95.9003 182.688ZM145.8 110.946C145.8 124.455 134.694 135.407 120.994 135.407C116.106 135.407 111.548 134.012 107.707 131.605C105.134 151.283 87.963 166.616 67.3357 166.616H45.2205C22.8328 166.616 4.51555 148.554 4.51555 126.478V83.8783C4.51555 80.3653 7.43045 77.491 10.9931 77.491C41.1831 79.3873 71.3731 79.3873 101.563 77.491C105.126 77.491 108.041 80.3653 108.041 83.8783V90.0817C111.811 87.8009 116.246 86.485 120.994 86.485C134.694 86.485 145.8 97.4365 145.8 110.946ZM137.91 110.946C137.91 101.733 130.336 94.2654 120.994 94.2654C115.794 94.2654 111.144 96.5792 108.041 100.219V121.673C111.144 125.313 115.794 127.626 120.994 127.626C130.336 127.626 137.91 120.158 137.91 110.946Z" fill="white"/>
<path d="M28.5319 77.7661C28.5319 77.7661 28.5853 77.7066 28.6889 77.5915C28.7406 77.5339 28.8049 77.4625 28.8814 77.3775C28.9568 77.2915 29.0381 77.1892 29.133 77.0774C29.505 76.6238 30.0273 75.9371 30.5451 75.0086C31.0578 74.0781 31.568 72.9026 31.899 71.5161C32.0592 70.8224 32.1912 70.0826 32.2428 69.3019C32.2711 68.9122 32.281 68.5137 32.2806 68.1092C32.2699 67.704 32.2511 67.2926 32.1987 66.8779C32.1545 66.4628 32.0791 66.046 31.9946 65.6276C31.8932 65.2122 31.7937 64.7922 31.6465 64.382C31.6144 64.2782 31.5763 64.176 31.5359 64.0744C31.4971 63.9728 31.4581 63.8707 31.419 63.7681C31.3305 63.5675 31.251 63.3628 31.1496 63.1665C31.0584 62.9659 30.9475 62.7738 30.8437 62.5782L30.8242 62.5416C30.8322 62.5588 30.7926 62.4771 30.8396 62.5756L30.8269 62.554L30.776 62.4677L30.6738 62.2946C30.6056 62.179 30.5371 62.063 30.4684 61.9465L30.4172 61.861L30.37 61.7946L30.276 61.6615C30.2144 61.5727 30.1527 61.4835 30.0908 61.394L30.045 61.3264L29.9903 61.2534L29.881 61.107C29.8084 61.0094 29.7356 60.9115 29.6626 60.8133C29.513 60.6176 29.3486 60.4235 29.1922 60.2271C29.0305 60.0307 28.8575 59.8345 28.6902 59.6368C27.9977 58.8484 27.2227 58.0467 26.4044 57.1915C25.5868 56.3363 24.7287 55.4237 23.8889 54.3974L23.5758 54.0092L23.2687 53.6027C23.1671 53.4654 23.0626 53.3329 22.9632 53.1906L22.6661 52.7603L22.5178 52.5442L22.481 52.4899L22.413 52.3791L22.3528 52.281L22.1115 51.888L21.9906 51.6911C21.9715 51.6617 21.9485 51.6197 21.9254 51.5771L21.857 51.4519L21.5851 50.9488L21.4503 50.6958C21.4086 50.6133 21.3728 50.5341 21.3338 50.453L21.1073 49.9668L20.9953 49.7226L20.8947 49.474L20.6944 48.9753C20.6248 48.8098 20.5671 48.6403 20.5093 48.4706L20.335 47.9613C20.221 47.6208 20.1353 47.2721 20.0357 46.9265C19.671 45.536 19.4643 44.101 19.4178 42.6586C19.377 41.2164 19.4886 39.7658 19.7745 38.3482C19.9162 37.6367 20.0939 36.943 20.3216 36.2456L20.4714 35.7974L20.6659 35.2695L20.7642 35.0073L20.8637 34.7663L21.0655 34.2863C21.3482 33.6595 21.641 33.0445 21.9551 32.4611C22.2677 31.8728 22.5965 31.3135 22.9245 30.7633C23.5897 29.6743 24.2691 28.6533 24.9295 27.6784C25.2544 27.1971 25.5766 26.7198 25.8958 26.247C25.9739 26.13 26.0519 26.0133 26.1297 25.8969C26.2053 25.7812 26.2808 25.6658 26.356 25.5507C26.4333 25.4327 26.5105 25.3149 26.5874 25.1974C26.6588 25.0863 26.7299 24.9754 26.8009 24.8648C26.9444 24.6464 27.0808 24.4143 27.2203 24.1912C27.3551 23.9661 27.4891 23.7423 27.6224 23.5198C27.7477 23.2963 27.8767 23.0743 27.9975 22.8525C28.1122 22.6298 28.2401 22.4109 28.3482 22.1903C29.2499 20.4316 29.8458 18.7133 30.0463 17.0823C30.0805 16.8779 30.0907 16.6765 30.1063 16.4757C30.1138 16.3826 30.1213 16.2902 30.1288 16.1982C30.1297 16.0868 30.1306 15.976 30.1315 15.8658C30.1311 15.7795 30.1307 15.6937 30.1303 15.6085C30.1251 15.5138 30.1199 15.4196 30.1147 15.326C30.0981 15.1389 30.084 14.9518 30.0588 14.7674C30.011 14.3983 29.9389 14.0378 29.8481 13.6898C29.7558 13.3422 29.641 13.0096 29.5201 12.6878C29.2749 12.0447 28.9556 11.4748 28.6208 10.9678C28.2794 10.4658 27.9078 10.0365 27.5329 9.68291C26.7795 8.97718 26.0235 8.57095 25.4804 8.35534C25.3451 8.29761 25.222 8.25596 25.1149 8.2189C25.0081 8.17936 24.9165 8.15118 24.8419 8.13162C24.6921 8.08917 24.6148 8.06726 24.6148 8.06726C24.6148 8.06726 24.6953 8.06127 24.8511 8.04968C24.9298 8.04234 25.0275 8.0372 25.144 8.03765C25.2611 8.03425 25.3971 8.03495 25.5508 8.04718C25.8597 8.06243 26.2432 8.11038 26.6866 8.22421C27.1312 8.33407 27.6347 8.51385 28.1689 8.78843C29.2376 9.33176 30.4177 10.2834 31.3931 11.6868C31.8845 12.3855 32.3093 13.2008 32.6445 14.1188C32.7289 14.3482 32.8041 14.5853 32.8718 14.8286C32.9031 14.9513 32.9346 15.0747 32.9663 15.1988C32.9941 15.3337 33.0221 15.4693 33.0502 15.6057C33.0713 15.7191 33.0924 15.8332 33.1137 15.948L33.1215 15.9901C33.1207 15.9702 33.127 16.0405 33.1273 16.0423L33.1302 16.0662L33.142 16.162L33.1654 16.3548C33.1963 16.6128 33.2313 16.8754 33.241 17.14C33.3107 18.2012 33.2441 19.3116 33.0589 20.4264C32.874 21.5421 32.5717 22.6624 32.1828 23.7668C31.7945 24.8746 31.3238 25.9586 30.791 27.0366C30.7233 27.1729 30.6554 27.3095 30.5873 27.4465C30.5217 27.5755 30.456 27.7049 30.3901 27.8345C30.321 27.9666 30.2518 28.0989 30.1824 28.2316C30.1125 28.3621 30.0424 28.4929 29.9722 28.6239C29.6912 29.1486 29.4064 29.6665 29.117 30.1824C28.5442 31.2132 27.9676 32.2307 27.436 33.2478C27.1732 33.7546 26.9134 34.2625 26.6817 34.7704C26.4382 35.2768 26.2271 35.784 26.0246 36.2917L25.8843 36.6724L25.8126 36.8624L25.7545 37.0371L25.6369 37.3845L25.506 37.8233L25.4401 38.0467L25.4236 38.1026C25.4524 38.0083 25.4284 38.0901 25.4334 38.0752L25.4278 38.099L25.4053 38.194L25.313 38.5738L25.2652 38.7633C25.2507 38.8269 25.2404 38.8917 25.2277 38.9558L25.1538 39.3412C24.9731 40.3727 24.8915 41.4313 24.9271 42.4899C24.954 43.5488 25.1025 44.6058 25.3445 45.6343C25.4146 45.8887 25.47 46.1477 25.5487 46.3991L25.6644 46.7767C25.7021 46.9029 25.7392 47.0293 25.7874 47.1514L25.9221 47.5214L25.9887 47.7066L26.0654 47.8871L26.2179 48.2483L26.2927 48.4277L26.3693 48.587L26.5197 48.9072L26.5567 48.9877C26.5683 49.0138 26.5802 49.0403 26.6013 49.0767L26.713 49.2787L26.9361 49.6821L26.9918 49.7828L27.0057 49.8079C27.043 49.8707 26.9707 49.751 26.9828 49.7707L27.0089 49.8127L27.1118 49.9818L27.3162 50.3204C27.3849 50.4333 27.4642 50.5451 27.5374 50.6576L27.7612 50.9945L28.0016 51.3303C28.6389 52.2296 29.3625 53.1234 30.0995 54.043C30.8367 54.9619 31.5932 55.9055 32.2934 56.9098C32.4667 57.1656 32.6411 57.4145 32.8091 57.6716C32.9725 57.9357 33.1386 58.1912 33.2948 58.4573C33.3715 58.592 33.4479 58.7263 33.5242 58.8602L33.6377 59.0606L33.6942 59.1605L33.7511 59.2705C33.8254 59.418 33.8995 59.5649 33.9734 59.7114L34.0821 59.9308L34.136 60.0401L34.1766 60.1348C34.2905 60.4054 34.4037 60.6742 34.516 60.941C34.6255 61.232 34.7313 61.5211 34.8171 61.813C34.9125 62.102 34.9816 62.3949 35.0571 62.6824C35.0916 62.8268 35.1199 62.9719 35.1498 63.1158C35.1804 63.2595 35.2082 63.4028 35.229 63.5465C35.3311 64.1183 35.3779 64.6841 35.408 65.2357C35.4225 65.7881 35.4267 66.3273 35.3785 66.8509C35.2269 68.9482 34.6252 70.7712 33.8855 72.2434C33.1386 73.7187 32.2445 74.8461 31.4247 75.6624C31.0118 76.0694 30.6259 76.4088 30.2678 76.6753C30.1796 76.7426 30.0947 76.8074 30.0131 76.8695C29.9286 76.9278 29.8476 76.9837 29.7701 77.0372C29.6925 77.0896 29.6185 77.1397 29.5481 77.1873C29.4753 77.2322 29.4062 77.2749 29.3409 77.3152C29.0831 77.4799 28.8784 77.5832 28.7404 77.6558C28.6028 77.7285 28.5319 77.7661 28.5319 77.7661Z" fill="white"/>
<path d="M57.0636 79.7604C57.0636 79.7604 57.0143 79.6644 56.9187 79.4786C56.824 79.2923 56.6789 79.0178 56.5001 78.6556C56.3186 78.2943 56.0968 77.8477 55.8438 77.3191C55.5888 76.7909 55.3018 76.181 54.9937 75.4901C54.6789 74.8016 54.3549 74.028 54.0134 73.1769C53.6676 72.3269 53.3349 71.3893 53.0039 70.3717C52.6724 69.3539 52.3754 68.2478 52.1158 67.0585C52.0838 66.9096 52.0517 66.7597 52.0194 66.6089C51.9916 66.456 51.9636 66.3022 51.9354 66.1475C51.9091 65.9999 51.8826 65.8514 51.8559 65.702C51.8327 65.541 51.8094 65.379 51.786 65.2161C51.7632 65.0527 51.7404 64.8883 51.7175 64.723C51.6994 64.5603 51.6812 64.3967 51.663 64.2323C51.6224 63.9033 51.5985 63.5684 51.573 63.2293C51.477 61.8729 51.4916 60.4392 51.6603 58.9481C51.7058 58.5758 51.7457 58.1984 51.8192 57.8209C51.8534 57.632 51.8826 57.4413 51.9222 57.2511C51.9641 57.061 52.0061 56.8701 52.0483 56.6786L52.1126 56.3902L52.1899 56.1029C52.242 55.9107 52.2944 55.7177 52.3469 55.5241C52.4036 55.3313 52.4692 55.1394 52.5308 54.9457C52.5946 54.7526 52.6528 54.5568 52.7297 54.3655C52.8756 53.9806 53.0183 53.5902 53.1982 53.2094C53.2876 53.0191 53.3658 52.823 53.4664 52.6355C53.5644 52.4467 53.6627 52.2573 53.7613 52.0672L53.8358 51.9246L53.8545 51.8889L53.9056 51.805L53.9416 51.7438L54.0857 51.4982C54.1829 51.3335 54.2803 51.1683 54.3781 51.0025C54.5056 50.8121 54.6335 50.6212 54.7617 50.4297L54.9567 50.1425C55.0222 50.0451 55.0874 49.9658 55.153 49.8764C55.2847 49.7023 55.4168 49.5278 55.5492 49.3528C55.6802 49.1758 55.827 49.0148 55.9664 48.8445C56.1088 48.6777 56.2476 48.5043 56.3981 48.3448C56.5484 48.1844 56.699 48.0237 56.85 47.8625C56.9993 47.6985 57.1573 47.5457 57.3157 47.3921C57.4741 47.2382 57.633 47.084 57.7922 46.9294C57.9565 46.7824 58.1212 46.635 58.2863 46.4874C58.4514 46.3389 58.6186 46.1928 58.7909 46.055C60.1519 44.9198 61.6259 43.9145 63.1568 43.0224C63.9218 42.5708 64.7036 42.1585 65.4906 41.7505C65.6883 41.6524 65.8862 41.5541 66.0843 41.4557L66.3969 41.3024L66.6832 41.1661L67.258 40.8929L67.8632 40.6137C71.0483 39.1579 74.2228 37.9228 77.1125 36.4401C77.8382 36.0741 78.5385 35.6879 79.2207 35.2855L79.727 34.9792L79.7903 34.941C79.7825 34.9462 79.8524 34.9022 79.7808 34.9479L79.8146 34.9259L79.95 34.8383L80.2211 34.6636C80.6118 34.4199 80.8689 34.2255 81.1749 34.017C82.4039 33.1227 83.5605 32.1274 84.5269 31.0373C86.4881 28.8649 87.6971 26.3326 87.8448 23.7609C87.8815 23.1153 87.8579 22.4642 87.7788 21.8164C87.6978 21.1688 87.5628 20.5244 87.3815 19.8909C87.1986 19.2577 86.9673 18.6366 86.7003 18.0317C86.4322 17.4272 86.1226 16.8423 85.7894 16.2749C85.12 15.141 84.3219 14.1026 83.4651 13.1646C83.037 12.6948 82.5914 12.2519 82.1337 11.837C82.0188 11.7339 81.906 11.6288 81.7883 11.531C81.6789 11.4379 81.5701 11.3451 81.4618 11.2529C81.2017 11.05 80.9462 10.8462 80.6939 10.6437C79.7672 9.92436 78.7613 9.26688 77.7941 8.67933C76.8259 8.08371 75.8536 7.59019 74.9373 7.11817C73.0897 6.19992 71.408 5.48369 70.0151 4.8999C68.612 4.3238 67.5097 3.87114 66.758 3.5625C66.0048 3.24847 65.6031 3.08099 65.6031 3.08099C65.6031 3.08099 65.7111 3.0961 65.9203 3.12536C66.1294 3.1555 66.4409 3.1957 66.8445 3.25835C67.2484 3.3207 67.7473 3.39368 68.3312 3.49484C68.9167 3.58944 69.5874 3.7109 70.3386 3.85505C71.8408 4.14516 73.6619 4.54559 75.733 5.16944C75.9925 5.24489 76.2538 5.33248 76.5197 5.41889C76.7854 5.50623 77.0557 5.59409 77.3266 5.69539C77.5987 5.79433 77.8748 5.89468 78.1546 5.99641C78.4324 6.10686 78.714 6.2188 78.9993 6.33221C80.1393 6.80457 81.2994 7.36094 82.5307 8.06551C82.8095 8.23076 83.0906 8.39855 83.3725 8.57094L83.4255 8.60312L83.452 8.61922L83.5096 8.65867L83.6214 8.73271L83.8459 8.88163C83.9974 8.97975 84.1439 9.08547 84.2929 9.18979C84.8871 9.6097 85.4737 10.0657 86.0475 10.5593C87.1937 11.548 88.2711 12.703 89.2482 14.012C89.737 14.6666 90.1898 15.3672 90.6038 16.1088C91.0187 16.8499 91.389 17.6355 91.7026 18.4623C92.0178 19.2883 92.2739 20.1569 92.452 21.06C92.6313 21.9624 92.737 22.8994 92.7411 23.8537C92.737 24.0951 92.7384 24.3253 92.7271 24.578L92.7025 24.9685C92.6938 25.0972 92.6844 25.2407 92.6739 25.328L92.6433 25.6293L92.628 25.7802L92.6054 25.9252L92.5903 26.0147C92.549 26.2536 92.5075 26.493 92.466 26.7328C92.4302 26.9747 92.3608 27.207 92.3045 27.4442C92.2421 27.6792 92.1921 27.9202 92.1163 28.1512C91.9632 28.6122 91.8242 29.0842 91.6273 29.5287C91.2713 30.4395 90.8066 31.2946 90.3092 32.1271C90.0448 32.5305 89.7882 32.9447 89.4959 33.3262C89.3518 33.5189 89.214 33.719 89.0628 33.9054L88.6075 34.4641C88.4578 34.6536 88.2954 34.8282 88.1349 35.0063C87.9727 35.1821 87.8154 35.3648 87.6477 35.5347C87.3105 35.8718 86.9792 36.2196 86.624 36.536C85.9291 37.1944 85.1901 37.7815 84.424 38.3595C82.8847 39.4944 81.2791 40.432 79.6491 41.2655C76.3888 42.9272 73.0878 44.1428 70.0532 45.4272L69.4938 45.663L68.9122 45.9164L68.6215 46.0432L68.3615 46.1608L67.8127 46.4081C67.0903 46.7453 66.3741 47.0845 65.6899 47.4511C64.307 48.1671 63.0177 48.9577 61.8404 49.8162C60.6564 50.6702 59.6243 51.6236 58.7245 52.6337C58.67 52.6958 58.6058 52.7608 58.5591 52.8204L58.4136 53.0002C58.3152 53.1195 58.217 53.2385 58.1191 53.3571C58.009 53.5122 57.8993 53.6669 57.7898 53.8211L57.6254 54.0538L57.5843 54.1119C57.5923 54.0979 57.5375 54.1844 57.5971 54.0877L57.5808 54.1137L57.5155 54.2175C57.4278 54.3558 57.3404 54.4937 57.2532 54.6312C57.1626 54.7668 57.0917 54.9144 57.0096 55.0547C56.9335 55.1985 56.8422 55.3339 56.7728 55.4812C56.6993 55.6265 56.6261 55.7714 56.5531 55.9158C55.9753 57.0792 55.5878 58.3155 55.2884 59.5435C54.9876 60.7741 54.8365 62.0121 54.7528 63.2142C54.7334 63.515 54.712 63.8135 54.7075 64.1101C54.703 64.2585 54.6985 64.4061 54.6941 64.5529C54.6938 64.6965 54.6935 64.8393 54.6932 64.9813C54.6932 65.1238 54.6932 65.2654 54.6932 65.4061C54.6988 65.5577 54.7044 65.7084 54.7099 65.8582C54.7127 65.9331 54.7154 66.0077 54.7182 66.0821L54.7215 66.1937L54.7231 66.2493C54.7254 66.2766 54.7207 66.2435 54.7218 66.2566L54.7232 66.2832C54.7309 66.4251 54.7384 66.5661 54.746 66.7062C54.805 67.8288 54.9341 68.8978 55.07 69.9078C55.353 71.9268 55.7287 73.6946 56.0413 75.1543C56.3683 76.6177 56.6253 77.7675 56.8005 78.5514C56.9721 79.3399 57.0636 79.7604 57.0636 79.7604Z" fill="white"/>
<path d="M88.016 78.3926C88.016 78.3926 87.6277 78.3142 86.8998 78.1671C86.5372 78.0915 86.0936 77.9629 85.5652 77.8212C85.3006 77.7496 85.0275 77.6527 84.7291 77.558C84.4329 77.4593 84.1149 77.3583 83.79 77.2264C82.4715 76.7383 80.8999 76.0248 79.2124 74.9809C77.5262 73.9384 75.7283 72.5611 73.9863 70.8004C73.7712 70.5784 73.5591 70.3486 73.3454 70.1155C73.2384 69.9988 73.131 69.8815 73.023 69.7636C72.9202 69.6413 72.8169 69.5185 72.7131 69.3951C72.5069 69.1468 72.2954 68.8978 72.0878 68.6416C71.8887 68.3786 71.6878 68.1132 71.4852 67.8456C71.2773 67.5806 71.0906 67.2977 70.8992 67.0139C70.8036 66.8717 70.7077 66.729 70.6113 66.5857L70.539 66.4779L70.5028 66.4239C70.5012 66.4236 70.4498 66.3295 70.4642 66.3571L70.4484 66.3312L70.3218 66.1236C70.153 65.846 69.983 65.5664 69.8116 65.2847C69.6393 64.9631 69.4657 64.6392 69.2908 64.3131C69.1078 63.982 68.9639 63.6594 68.8066 63.3293C68.7295 63.1643 68.6522 62.9988 68.5746 62.8328C68.4948 62.6674 68.4318 62.4952 68.3593 62.3257C68.2215 61.9841 68.0716 61.6433 67.9421 61.2934C67.8179 60.9411 67.6931 60.5869 67.5675 60.2307C67.0966 58.7951 66.7269 57.2897 66.4745 55.7347C66.2159 54.1801 66.1039 52.5735 66.1158 50.9447C66.1334 49.3158 66.2835 47.663 66.587 46.0168L66.7121 45.4007L66.8467 44.7628L66.984 44.2004L67.1436 43.5896C67.3512 42.8107 67.5686 42.0665 67.7688 41.3513C68.1657 39.9205 68.4803 38.5998 68.5414 37.3977L68.5476 37.1749L68.5517 37.0636L68.5539 37.008C68.555 37.0525 68.5531 36.869 68.5567 37.1008L68.5554 37.0645L68.5348 36.4846C68.5334 36.0361 68.4743 35.8629 68.4495 35.602L68.4391 35.509C68.4358 35.478 68.4342 35.4485 68.4238 35.4096L68.3753 35.19C68.3431 35.0437 68.3136 34.8968 68.2849 34.7496C68.2525 34.6028 68.2001 34.4578 68.16 34.3115C68.1143 34.1658 68.0822 34.0181 68.0278 33.8733C67.6203 32.7117 67.0087 31.5705 66.2467 30.494C65.8726 29.9519 65.4482 29.4324 65.0079 28.925C64.7904 28.6692 64.5511 28.4273 64.3254 28.1772C64.0891 27.9344 63.8442 27.6982 63.6055 27.4582C63.3542 27.2274 63.1037 26.9972 62.8541 26.7678C62.5936 26.5477 62.3412 26.3202 62.0768 26.1063C61.9438 26 61.811 25.8939 61.6785 25.7879L61.4805 25.6281L61.4558 25.608C61.4426 25.5976 61.4856 25.6279 61.4541 25.6051L61.3988 25.5633L61.2883 25.4798C61.1411 25.3685 60.9941 25.2575 60.8475 25.1466L60.6289 24.982L60.4234 24.8333C60.1481 24.6346 59.8834 24.4389 59.5908 24.2366C59.3051 24.0354 59.0218 23.8343 58.7303 23.6381C58.4418 23.4407 58.1539 23.2443 57.8609 23.0506C57.5688 22.8549 57.2782 22.6602 56.9892 22.4666C55.8241 21.6934 54.6602 20.9248 53.5321 20.136C51.2728 18.5626 49.1702 16.8842 47.4726 15.041C46.6149 14.0962 45.8936 13.1464 45.2828 12.1826C44.6807 11.217 44.18 10.2616 43.8043 9.3243C43.428 8.38831 43.1529 7.48353 42.9838 6.63203C42.8166 5.77968 42.7379 4.98633 42.7381 4.2725C42.7271 2.84207 42.9978 1.75443 43.2305 1.05132C43.3492 0.698403 43.4568 0.436178 43.5372 0.262842C43.6147 0.0894713 43.6547 0 43.6547 0C43.6547 0 43.6421 0.0969157 43.6178 0.284684C43.5894 0.470546 43.5681 0.750481 43.5454 1.10924C43.5408 1.28991 43.5269 1.48897 43.5353 1.70948C43.539 1.81957 43.5346 1.93331 43.5416 2.05262C43.5485 2.17134 43.5557 2.29496 43.5631 2.42336C43.6067 2.93531 43.6869 3.51641 43.8389 4.14857C43.9945 4.77991 44.2104 5.46335 44.5181 6.17505C44.8348 6.88358 45.2148 7.62881 45.7048 8.37489C45.9486 8.74814 46.215 9.12333 46.4979 9.50109C46.7872 9.87554 47.097 10.2501 47.4298 10.6209C47.7677 10.9879 48.1179 11.3585 48.4939 11.7198C48.8677 12.0786 49.2766 12.4377 49.6863 12.769C50.5295 13.4557 51.478 14.1258 52.4957 14.7662C53.5139 15.4105 54.6037 16.0406 55.7547 16.675C56.9291 17.3114 58.1354 17.9652 59.3685 18.6335C59.9943 18.9735 60.6311 19.326 61.2728 19.6983C61.9171 20.0682 62.558 20.4482 63.2331 20.8781L63.4841 21.036L63.7166 21.1877C63.8706 21.2885 64.0248 21.3896 64.1794 21.4908L64.2953 21.5667L64.3534 21.6047C64.3409 21.5952 64.4027 21.6388 64.4079 21.6425L64.4386 21.664L64.6847 21.837C64.8485 21.9533 65.0126 22.0697 65.177 22.1864C65.5046 22.422 65.823 22.6749 66.1479 22.9208C66.4667 23.1757 66.7821 23.4394 67.0984 23.7033C67.4052 23.981 67.7164 24.2554 68.0212 24.5408C68.3185 24.8366 68.6251 25.1224 68.9158 25.4312C69.4959 26.0491 70.0621 26.694 70.5861 27.3918C71.6347 28.7809 72.5583 30.3472 73.1947 32.0947C73.2777 32.3107 73.3394 32.5385 73.4115 32.7605C73.4785 32.9851 73.5552 33.2056 73.6117 33.4345L73.7668 34.1272L73.8411 34.4744C73.8546 34.5294 73.863 34.5962 73.8719 34.6611L73.8984 34.8557C73.9331 35.1154 73.9652 35.3757 73.9946 35.6361C74.0329 35.9268 74.0273 36.078 74.0383 36.2807L74.062 36.8606L74.0635 36.8968C74.0674 37.1528 74.064 36.9934 74.0645 37.0621L74.0623 37.1515L74.0574 37.3302L74.0455 37.6877C73.9339 39.5831 73.4833 41.2881 73.0304 42.8194C72.8082 43.5535 72.5864 44.2862 72.3653 45.0167L72.22 45.5156L72.0702 46.0656C71.9913 46.3939 71.9126 46.7215 71.834 47.0485C71.5403 48.3921 71.352 49.7529 71.2696 51.1083C71.1836 52.4634 71.1965 53.815 71.3203 55.1382C71.4396 56.462 71.6522 57.7583 71.9388 59.0141C72.0184 59.3263 72.0976 59.6367 72.1764 59.9454C72.2565 60.2542 72.3565 60.555 72.4443 60.8585C72.4917 61.0089 72.5298 61.1627 72.5843 61.3096C72.6366 61.4576 72.6887 61.6051 72.7407 61.7522C72.8452 62.0445 72.9403 62.3494 73.0543 62.6159C73.1641 62.8927 73.2732 63.1675 73.3815 63.4404C73.5188 63.7397 73.6551 64.0368 73.7904 64.3316L73.8915 64.5525L73.904 64.58C73.9282 64.6253 73.8853 64.5495 73.8945 64.5662L73.9201 64.6161L73.9714 64.7159C74.0397 64.8491 74.1078 64.9817 74.1755 65.1138C74.3133 65.3771 74.4372 65.6466 74.588 65.8983C74.7326 66.1544 74.876 66.4085 75.018 66.6602C75.1721 66.9058 75.3248 67.1493 75.476 67.3904C75.5524 67.5111 75.6284 67.6312 75.704 67.7508C75.7851 67.8667 75.8658 67.9821 75.9461 68.097C76.1062 68.3283 76.2647 68.5574 76.4216 68.7841C77.7274 70.5651 79.1328 72.0766 80.4919 73.3153C81.8509 74.5568 83.1665 75.5198 84.2934 76.2603C84.5704 76.4551 84.8454 76.6171 85.1031 76.7742C85.361 76.9296 85.5994 77.09 85.8288 77.2169C86.059 77.3459 86.272 77.4652 86.4672 77.5745C86.6633 77.685 86.8392 77.7915 87.0067 77.8714C87.6649 78.2113 88.016 78.3926 88.016 78.3926Z" fill="white"/>
<g clip-path="url(#clip0_10_272)">
<path d="M325.22 45.8221L310.542 39.8116L310.558 14.8344C310.558 13.8734 309.778 13.0947 308.819 13.0947H283.423C282.462 13.0947 281.683 13.8734 281.683 14.8344V28.1307L244.131 10.3787C244.112 10.3696 244.094 10.3619 244.075 10.3528L243.961 10.3034C243.941 10.2944 243.922 10.2866 243.903 10.2785C241.48 9.28627 238.905 8.78223 236.25 8.78223C233.596 8.78223 231.02 9.28582 228.597 10.2785C228.582 10.2848 228.566 10.2907 228.551 10.298L147.234 45.6081C146.363 45.9862 145.8 46.8451 145.8 47.7938V73.0372C145.8 73.8064 146.171 74.528 146.797 74.9758C147.421 75.4228 148.225 75.5415 148.953 75.2927L236.25 37.6092L323.548 75.295C323.799 75.3806 324.058 75.4223 324.317 75.4223C324.808 75.4223 325.294 75.2709 325.703 74.9772C326.329 74.5303 326.7 73.8078 326.7 73.0395V48.0277C326.7 47.0595 326.116 46.1874 325.22 45.8221Z" fill="white"/>
<path d="M309.287 165.875H302.899V77.5069L236.251 48.5159L169.602 77.5069V165.875H163.214C156.229 165.875 150.568 170.9 150.568 177.097C150.568 183.294 156.229 188.318 163.214 188.318H269.49C269.401 187.923 269.321 187.526 269.227 187.132C268.254 183.033 267.04 178.982 265.656 174.977C265.459 174.407 265.267 173.905 265.073 173.333C264.995 173.1 264.67 173.161 264.455 173.154C264.158 173.143 263.858 173.129 263.559 173.115C262.343 173.06 261.126 172.984 259.914 172.887C257.603 172.706 255.304 172.45 253.02 172.112C248.87 171.499 244.769 170.622 240.776 169.443C234.068 167.464 227.682 164.625 221.956 160.94C217.412 158.013 213.293 154.565 209.743 150.705C204.254 144.737 200.139 137.804 197.543 130.459C194.854 122.845 193.786 114.781 194.461 106.824C194.63 104.824 194.91 102.834 195.302 100.86C195.477 99.9681 195.638 99.1128 196.274 98.3762C196.836 97.7262 197.64 97.2552 198.534 97.0535C199.558 96.8233 200.702 96.9429 201.745 96.9615C202.95 96.9828 204.156 97.0218 205.36 97.0775C207.721 97.1909 210.078 97.3704 212.424 97.6256C221.264 98.5842 229.987 100.599 238.104 103.878C245.674 106.935 252.695 111.098 258.601 116.309C264.342 121.374 268.96 127.391 272.233 133.959C273.922 137.345 275.255 140.867 276.252 144.462C276.768 146.32 277.193 148.196 277.533 150.086C277.708 151.051 277.859 152.017 277.987 152.985C278.097 153.8 277.893 154.633 277.409 155.333C276.33 156.892 272.792 157.695 271.55 156.002C270.34 154.35 269.117 152.703 267.844 151.088C263.154 145.141 258.034 139.418 252.284 134.247C250.738 132.858 249.167 131.464 247.437 130.253C245.832 129.129 244.114 128.134 242.35 127.214C241.004 126.512 239.628 125.843 238.225 125.227C237.536 124.925 237.308 125.228 237.886 125.665C239.801 127.114 241.662 128.604 243.44 130.195C250.764 136.758 256.564 144.514 261.383 152.668C264.797 158.447 267.817 164.391 270.543 170.45C271.854 173.362 273.232 176.245 274.444 179.193C275.68 182.195 276.805 185.236 277.768 188.318H309.285C316.27 188.318 321.931 183.294 321.931 177.097C321.933 170.9 316.272 165.875 309.287 165.875Z" fill="white"/>
</g>
<defs>
<clipPath id="clip0_10_272">
<rect width="180.9" height="180.9" fill="white" transform="translate(145.8 8.09998)"/>
</clipPath>
</defs>
</svg>
