<svg width="92" height="92" viewBox="0 0 92 92" fill="none" xmlns="http://www.w3.org/2000/svg">
<path d="M85.0476 2.8994L2.3325 37.7268C-0.379178 38.8686 -0.828956 42.5223 1.52494 44.2876L16.8654 55.7929L86.3505 4.83728C87.2739 3.91388 86.2511 2.39262 85.0476 2.8994Z" fill="white"/>
<path d="M90.1027 7.82123L89.3723 8.35681L33.1045 64.6249L61.96 83.8615C64.0506 85.2555 66.8942 84.2797 67.6887 81.8958L91.9349 9.15693C92.3017 8.05665 91.0379 7.13541 90.1027 7.82123Z" fill="white"/>
<path d="M22.2783 89.2013L40.096 74.8449L30.563 68.4898L22.2783 89.2013Z" fill="white"/>
<path d="M27.8379 63.3499C27.8382 63.3496 27.8385 63.3493 27.8389 63.349L59.5655 31.6223C60.0639 31.1239 59.393 30.3421 58.8246 30.7587L19.1624 59.844V84.5366L27.3268 64.1256C27.447 63.8254 27.6233 63.5649 27.8379 63.3499Z" fill="white"/>
</svg>
